<?xml version="1.0" standalone="no"?>
<!DOCTYPE svg PUBLIC "-//W3C//DTD SVG 20010904//EN"
 "http://www.w3.org/TR/2001/REC-SVG-20010904/DTD/svg10.dtd">
<svg version="1.0" xmlns="http://www.w3.org/2000/svg"
 width="96.000000pt" height="96.000000pt" viewBox="0 0 96.000000 96.000000"
 preserveAspectRatio="xMidYMid meet">

<g transform="translate(0.000000,96.000000) scale(0.100000,-0.100000)"
fill="#000000" stroke="none">
<path d="M127 833 c-4 -3 -7 -165 -7 -360 0 -340 1 -354 20 -373 19 -19 33
-20 340 -20 307 0 321 1 340 20 20 20 20 31 18 378 l-3 357 -351 3 c-193 1
-353 -1 -357 -5z m671 -350 l-3 -318 -315 0 -315 0 -3 318 -2 317 320 0 320 0
-2 -317z"/>
<path d="M357 642 c-19 -21 -22 -64 -7 -93 7 -13 21 -19 45 -19 39 0 55 20 55
68 0 54 -59 81 -93 44z m53 -47 c0 -16 -6 -25 -15 -25 -9 0 -15 9 -15 25 0 16
6 25 15 25 9 0 15 -9 15 -25z"/>
<path d="M469 499 c-119 -159 -136 -188 -112 -196 13 -5 255 311 257 335 3 44
-35 7 -145 -139z"/>
<path d="M522 418 c-19 -19 -15 -82 6 -101 54 -49 118 25 82 94 -12 22 -68 27
-88 7z m56 -50 c-5 -32 -28 -35 -28 -4 0 17 5 26 16 26 10 0 14 -7 12 -22z"/>
</g>
</svg>
